<svg xmlns="http://www.w3.org/2000/svg" viewBox="0 0 180 180" width="180" height="180">
  <defs>
    <linearGradient id="grad1" x1="0%" y1="0%" x2="100%" y2="100%">
      <stop offset="0%" style="stop-color:#3B82F6;stop-opacity:1" />
      <stop offset="100%" style="stop-color:#1E40AF;stop-opacity:1" />
    </linearGradient>
  </defs>
  
  <!-- Pozadí -->
  <rect width="180" height="180" fill="#F8FAFC" rx="20"/>
  
  <g transform="translate(20, 20)">
    <!-- Kostka 3D efekt -->
    <path d="M70 15 L130 40 L70 65 L10 40 Z" fill="url(#grad1)" stroke="#1E40AF" stroke-width="2"/>
    <path d="M10 40 L10 100 L70 125 L70 65 Z" fill="#2563EB" stroke="#1E40AF" stroke-width="2"/>
    <path d="M70 65 L70 125 L130 100 L130 40 Z" fill="#1D4ED8" stroke="#1E40AF" stroke-width="2"/>
    
    <!-- Kalkulačka symbol -->
    <g transform="translate(45, 35)">
      <!-- Displej -->
      <rect x="0" y="0" width="50" height="12" fill="white" opacity="0.9" rx="3"/>
      
      <!-- Tlačítka -->
      <circle cx="10" cy="25" r="5" fill="white" opacity="0.8"/>
      <circle cx="25" cy="25" r="5" fill="white" opacity="0.8"/>
      <circle cx="40" cy="25" r="5" fill="white" opacity="0.8"/>
      
      <circle cx="10" cy="40" r="5" fill="white" opacity="0.8"/>
      <circle cx="25" cy="40" r="5" fill="white" opacity="0.8"/>
      <circle cx="40" cy="40" r="5" fill="white" opacity="0.8"/>
      
      <circle cx="10" cy="55" r="5" fill="white" opacity="0.8"/>
      <circle cx="25" cy="55" r="5" fill="white" opacity="0.8"/>
      <circle cx="40" cy="55" r="5" fill="white" opacity="0.8"/>
    </g>
  </g>
</svg>
